<svg width="20" height="14" viewBox="0 0 26 16" fill="none" xmlns="http://www.w3.org/2000/svg">
    <path d="M9.47559 1.69885H16.4986V14.1864H9.47559V1.69885Z" fill="#FF5F00" />
    <path d="M9.92154 7.94261C9.92154 5.40543 11.1255 3.15497 12.9759 1.69879C11.616 0.639799 9.8993 0 8.02648 0C3.58952 0 0 3.55206 0 7.94261C0 12.3331 3.58952 15.8852 8.02638 15.8852C9.8992 15.8852 11.6159 15.2454 12.9759 14.1863C11.1255 12.7523 9.92154 10.4798 9.92154 7.94261Z" fill="#EB001B" />
    <path d="M25.9742 7.94261C25.9742 12.3331 22.3847 15.8852 17.9478 15.8852C16.075 15.8852 14.3583 15.2454 12.9983 14.1863C14.8711 12.7303 16.0528 10.4798 16.0528 7.94261C16.0528 5.40543 14.8488 3.15497 12.9983 1.69879C14.3582 0.639799 16.075 0 17.9478 0C22.3847 0 25.9742 3.57417 25.9742 7.94261Z" fill="#F79E1B" />
</svg>
